<?xml version="1.0" encoding="UTF-8" standalone="no"?><!DOCTYPE svg PUBLIC "-//W3C//DTD SVG 1.1//EN" "http://www.w3.org/Graphics/SVG/1.1/DTD/svg11.dtd"><svg width="100%" height="100%" viewBox="0 0 152 41" version="1.1" xmlns="http://www.w3.org/2000/svg" xmlns:xlink="http://www.w3.org/1999/xlink" xml:space="preserve" xmlns:serif="http://www.serif.com/" style="fill-rule:evenodd;clip-rule:evenodd;stroke-linejoin:round;stroke-miterlimit:2;"><rect id="blacksmith-dark" x="0.234" y="0" width="150.727" height="40" style="fill:none;"/><path d="M32.115,11.76l2.433,0c-0.004,2.077 0,4.153 0.015,6.23c0.964,-1 2.148,-1.488 3.549,-1.464c1.454,-0.012 2.737,0.443 3.85,1.363c1.051,1.013 1.647,2.252 1.789,3.718c0.206,1.591 -0.08,3.084 -0.859,4.478c-0.99,1.51 -2.388,2.357 -4.193,2.541c-1.326,0.148 -2.537,-0.149 -3.635,-0.89c-0.175,-0.138 -0.342,-0.286 -0.501,-0.445c-0.015,0.412 -0.019,0.823 -0.015,1.235l-2.433,-0l0,-3.905c0.138,-0.85 0.529,-1.558 1.174,-2.124c-0.652,-0.552 -1.043,-1.251 -1.174,-2.096l0,-8.641Zm5.153,6.919c2.049,-0.076 3.323,0.881 3.821,2.871c0.201,1.002 0.115,1.978 -0.258,2.928c-0.739,1.498 -1.946,2.172 -3.621,2.024c-1.156,-0.1 -2.02,-0.65 -2.59,-1.651c-0.092,-0.335 -0.187,-0.67 -0.286,-1.005c-0.201,-0.541 -0.53,-0.986 -0.988,-1.335c0.625,-0.511 1.011,-1.166 1.159,-1.966c0.347,-0.807 0.934,-1.357 1.761,-1.651c0.331,-0.105 0.665,-0.176 1.002,-0.215Zm98.009,-6.805l-2.434,0c-0.004,3.072 0,6.144 0.015,9.216c0.125,0.856 0.512,1.564 1.159,2.124c-0.647,0.56 -1.034,1.268 -1.159,2.124c-0.015,1.101 -0.019,2.201 -0.015,3.302l2.434,-0c0.004,-1.091 -0,-2.182 -0.015,-3.273c-0.117,-0.868 -0.504,-1.586 -1.159,-2.153c0.467,-0.407 0.805,-0.905 1.016,-1.493c0.12,-0.433 0.253,-0.864 0.4,-1.292c0.553,-1.234 1.507,-1.856 2.863,-1.866c0.799,-0.029 1.486,0.229 2.061,0.775c0.555,0.703 0.832,1.507 0.83,2.412c0.014,2.296 0.019,4.593 0.014,6.89l2.577,-0c0.013,-2.575 -0.002,-5.149 -0.043,-7.723c-0.046,-0.467 -0.132,-0.926 -0.258,-1.378c-0.309,-1.132 -0.964,-1.998 -1.961,-2.598c-0.982,-0.495 -2.021,-0.696 -3.12,-0.603c-1.314,0.097 -2.378,0.657 -3.192,1.68c-0.013,-2.048 -0.019,-4.096 -0.013,-6.144Zm-9.895,13.434l0,-6.561l-2.1,0l-0,-2.242l2.1,-0l0,-3.375l2.573,-0l0,3.375l2.95,-0l0,2.242l-2.95,0l0,6.302c0,0.944 0.33,1.298 1.298,1.298l1.793,-0l0,2.242l-2.36,0c-2.313,0 -3.304,-1.086 -3.304,-3.281Zm-56.758,3.217c-3.658,-0 -5.995,-2.384 -5.995,-6.16c0,-3.729 2.408,-6.207 6.066,-6.207c3.115,-0 5.05,1.723 5.546,4.46l-2.667,0c-0.33,-1.416 -1.345,-2.289 -2.926,-2.289c-2.054,0 -3.399,1.652 -3.399,4.036c-0,2.36 1.345,3.989 3.399,3.989c1.557,-0 2.596,-0.897 2.903,-2.29l2.69,0c-0.472,2.738 -2.525,4.461 -5.617,4.461Zm-7.362,-2.36l0.519,-0l0,2.218l-1.345,0c-1.652,0 -2.218,-0.731 -2.218,-1.935c-0.803,1.227 -2.03,2.077 -3.989,2.077c-2.643,-0 -4.484,-1.298 -4.484,-3.54c-0,-2.478 1.793,-3.871 5.168,-3.871l3.045,0l-0,-0.732c-0,-1.345 -0.968,-2.171 -2.643,-2.171c-1.511,0 -2.526,0.708 -2.715,1.77l-2.501,0c0.259,-2.36 2.289,-3.823 5.334,-3.823c3.209,-0 5.05,1.534 5.05,4.39l0,4.838c0,0.614 0.26,0.779 0.779,0.779Zm-3.304,-2.738l-0,-0.425l-3.163,0c-1.581,0 -2.454,0.59 -2.454,1.818c-0,1.014 0.849,1.722 2.242,1.722c2.124,0 3.351,-1.25 3.375,-3.115Zm30.756,0.968l-2.502,-0c0.071,2.62 2.289,4.13 5.523,4.13c2.927,-0 5.122,-1.463 5.122,-3.776c-0,-2.691 -2.243,-3.257 -5.004,-3.588c-1.746,-0.188 -2.903,-0.33 -2.903,-1.463c0,-0.968 0.991,-1.581 2.502,-1.581c1.511,-0 2.549,0.779 2.69,1.888l2.502,-0c-0.165,-2.478 -2.265,-3.847 -5.239,-3.847c-2.904,-0.024 -4.957,1.463 -4.957,3.752c0,2.502 2.172,3.092 4.933,3.423l0.185,0.023c1.753,0.22 2.789,0.351 2.789,1.605c-0,0.968 -1.039,1.581 -2.62,1.581c-1.841,0 -2.927,-0.896 -3.021,-2.147Zm-40.81,-12.521l-2.421,0l0,8.718c0,0.997 0.449,1.937 1.211,2.536c-0.762,0.598 -1.211,1.538 -1.211,2.535l0,2.853l2.421,0l-0,-2.853c-0,-0.997 -0.448,-1.937 -1.21,-2.535c0.762,-0.599 1.21,-1.539 1.21,-2.536l-0,-8.718Zm71.222,4.623l2.42,0l0,4.122c0,0.998 -0.448,1.937 -1.21,2.536c-0.762,-0.599 -1.21,-1.538 -1.21,-2.536l-0,-4.122Zm1.21,6.658c0.762,0.598 1.21,1.538 1.21,2.536l0,2.853l-2.42,-0l-0,-2.853c-0,-0.998 0.448,-1.938 1.21,-2.536Zm-41.717,-11.281l-2.42,0l-0.02,6.615c0,0.998 0.449,1.995 1.21,2.593c-0.761,0.599 -1.21,1.481 -1.21,2.479l0.02,4.955l2.42,0l-0.019,-4.955c0,-0.998 -0.448,-1.88 -1.211,-2.479c0.763,-0.598 1.211,-1.595 1.211,-2.593l0.019,-6.615Zm3.921,4.456c1.011,-0.01 2.022,-0 3.034,0.028c-1.501,1.645 -3.018,3.276 -4.551,4.895c1.49,2.213 2.976,4.442 4.456,6.664l0.004,0.004l0.002,0.005l0.375,0.562l-3.034,-0c-0.6,-0.883 -1.197,-1.768 -1.789,-2.656c-0.958,-1.591 -1.926,-3.175 -2.906,-4.751c1.486,-1.571 2.956,-3.155 4.409,-4.751Zm37.796,-1.316c0.835,0 1.513,-0.677 1.513,-1.513c-0,-0.835 -0.678,-1.513 -1.513,-1.513c-0.836,0 -1.513,0.678 -1.513,1.513c-0,0.836 0.677,1.513 1.513,1.513Zm-16.316,1.324c0.976,-0.065 1.894,0.137 2.752,0.606c0.562,0.376 1.007,0.86 1.333,1.451c0.751,-1.136 1.804,-1.798 3.16,-1.987c1.181,-0.186 2.305,-0.007 3.369,0.536c0.928,0.593 1.531,1.424 1.812,2.494c0.155,0.61 0.239,1.23 0.252,1.86c0.014,2.414 0.019,4.828 0.014,7.242l-2.667,0c0.01,-2.536 -0.004,-5.073 -0.043,-7.609c-0.073,-0.672 -0.33,-1.26 -0.772,-1.761c-0.422,-0.392 -0.923,-0.584 -1.502,-0.578c-1.377,0.038 -2.266,0.714 -2.667,2.029c-0.136,0.527 -0.192,1.062 -0.169,1.607c-0.014,2.104 -0.019,4.208 -0.014,6.312l-2.668,0c0.005,-2.32 0,-4.64 -0.014,-6.96c0.008,-0.721 -0.161,-1.398 -0.505,-2.029c-0.631,-0.832 -1.46,-1.128 -2.485,-0.888c-0.737,0.165 -1.294,0.574 -1.671,1.226c-0.263,0.472 -0.403,0.979 -0.421,1.521c-0.18,0.695 -0.54,1.273 -1.081,1.733c0.703,0.589 1.091,1.346 1.165,2.269c0.014,1.043 0.019,2.085 0.014,3.128l-2.414,0c-0.006,-1.061 -0,-2.123 0.013,-3.184c0.091,-0.9 0.479,-1.638 1.166,-2.213c-0.614,-0.523 -0.994,-1.185 -1.138,-1.986c-0.041,-1.549 -0.055,-3.099 -0.041,-4.65l2.414,0c-0.004,0.376 0,0.752 0.014,1.127c0.768,-0.787 1.699,-1.219 2.794,-1.296Zm-97.32,-1.088c-0.435,-0.869 0.198,-1.892 1.172,-1.892l17.696,0c0.973,0 1.606,1.023 1.171,1.892l-1.964,3.923c-0.222,0.443 -0.676,0.723 -1.172,0.723l-13.767,-0c-0.496,-0 -0.95,-0.28 -1.172,-0.723l-1.964,-3.923Zm15.128,10.599c0.436,0.869 -0.197,1.892 -1.171,1.892l-7.875,-0c-0.973,-0 -1.607,-1.023 -1.171,-1.892l1.964,-3.923c0.222,-0.443 0.675,-0.723 1.171,-0.723l3.947,0c0.496,0 0.949,0.28 1.171,0.723l1.964,3.923Z" style="fill:#fff;"/></svg>