<?xml version="1.0" encoding="UTF-8" standalone="no"?><!DOCTYPE svg PUBLIC "-//W3C//DTD SVG 1.1//EN" "http://www.w3.org/Graphics/SVG/1.1/DTD/svg11.dtd"><svg width="100%" height="100%" viewBox="0 0 629 167" version="1.1" xmlns="http://www.w3.org/2000/svg" xmlns:xlink="http://www.w3.org/1999/xlink" xml:space="preserve" xmlns:serif="http://www.serif.com/" style="fill-rule:evenodd;clip-rule:evenodd;stroke-linejoin:round;stroke-miterlimit:2;"><rect id="blacksmith-light" x="0.325" y="0" width="628.029" height="166.667" style="fill:none;"/><path d="M133.163,49.001l10.137,-0c-0.019,8.652 0,17.304 0.06,25.956c4.02,-4.166 8.949,-6.2 14.789,-6.1c6.058,-0.049 11.405,1.845 16.041,5.682c4.38,4.22 6.864,9.383 7.455,15.49c0.859,6.63 -0.333,12.85 -3.579,18.66c-4.126,6.289 -9.95,9.817 -17.472,10.586c-5.523,0.616 -10.572,-0.62 -15.147,-3.708c-0.729,-0.576 -1.425,-1.194 -2.087,-1.854c-0.06,1.714 -0.079,3.429 -0.06,5.144l-10.137,-0l-0,-16.268c0.573,-3.542 2.203,-6.493 4.89,-8.852c-2.717,-2.299 -4.347,-5.21 -4.89,-8.732l-0,-36.004Zm21.468,28.827c8.538,-0.315 13.846,3.672 15.922,11.962c0.836,4.175 0.479,8.242 -1.074,12.201c-3.081,6.241 -8.11,9.053 -15.087,8.433c-4.819,-0.415 -8.417,-2.708 -10.793,-6.878c-0.382,-1.395 -0.78,-2.791 -1.193,-4.187c-0.835,-2.253 -2.207,-4.107 -4.115,-5.562c2.603,-2.13 4.213,-4.861 4.83,-8.194c1.445,-3.362 3.89,-5.655 7.335,-6.878c1.379,-0.436 2.771,-0.735 4.175,-0.897Zm408.37,-28.352l-10.139,0c-0.019,12.799 0,25.598 0.061,38.397c0.522,3.567 2.134,6.517 4.83,8.852c-2.696,2.335 -4.308,5.285 -4.83,8.852c-0.061,4.585 -0.08,9.17 -0.061,13.755l10.139,0c0.019,-4.545 -0,-9.091 -0.061,-13.636c-0.489,-3.616 -2.101,-6.607 -4.83,-8.971c1.945,-1.696 3.356,-3.769 4.234,-6.22c0.5,-1.805 1.056,-3.599 1.669,-5.383c2.302,-5.143 6.277,-7.735 11.927,-7.775c3.328,-0.124 6.191,0.953 8.587,3.23c2.313,2.928 3.465,6.277 3.46,10.048c0.058,9.569 0.08,19.138 0.058,28.707l10.735,0c0.055,-10.727 -0.005,-21.453 -0.179,-32.176c-0.189,-1.947 -0.547,-3.86 -1.072,-5.742c-1.29,-4.719 -4.016,-8.328 -8.172,-10.825c-4.09,-2.065 -8.422,-2.902 -12.999,-2.512c-5.474,0.401 -9.908,2.734 -13.299,6.997c-0.058,-8.532 -0.08,-17.065 -0.058,-25.598Zm-41.225,55.975l-0,-27.338l-8.753,0l0,-9.342l8.753,-0l-0,-14.063l10.718,0l0,14.063l12.293,-0l-0,9.342l-12.293,0l0,26.257c0,3.933 1.376,5.408 5.408,5.408l7.473,0l0,9.343l-9.833,-0c-9.638,-0 -13.766,-4.524 -13.766,-13.67Zm-236.494,13.403c-15.243,0 -24.978,-9.932 -24.978,-25.667c-0,-15.537 10.03,-25.863 25.273,-25.863c12.981,0 21.044,7.179 23.11,18.586l-11.112,0c-1.377,-5.9 -5.606,-9.539 -12.195,-9.539c-8.555,0 -14.161,6.884 -14.161,16.816c0,9.835 5.606,16.62 14.161,16.62c6.491,-0 10.818,-3.737 12.096,-9.539l11.211,-0c-1.967,11.407 -10.522,18.586 -23.405,18.586Zm-30.674,-9.834l2.163,0l0,9.244l-5.605,0c-6.884,0 -9.244,-3.048 -9.244,-8.064c-3.344,5.114 -8.457,8.654 -16.62,8.654c-11.014,0 -18.684,-5.409 -18.684,-14.751c-0,-10.326 7.474,-16.128 21.536,-16.128l12.686,0l-0,-3.048c-0,-5.606 -4.032,-9.047 -11.014,-9.047c-6.294,-0 -10.522,2.95 -11.309,7.375l-10.424,0c1.082,-9.834 9.539,-15.931 22.225,-15.931c13.374,0 21.044,6.392 21.044,18.291l0,20.16c0,2.557 1.082,3.245 3.246,3.245Zm-13.768,-11.407l-0,-1.77l-13.177,-0c-6.589,-0 -10.228,2.458 -10.228,7.572c0,4.228 3.54,7.179 9.342,7.179c8.851,-0 13.965,-5.212 14.063,-12.981Zm128.15,4.032l-10.424,-0c0.297,10.915 9.539,17.209 23.014,17.209c12.193,0 21.338,-6.097 21.338,-15.734c0,-11.211 -9.343,-13.571 -20.849,-14.948c-7.275,-0.787 -12.094,-1.377 -12.094,-6.097c0,-4.032 4.129,-6.589 10.425,-6.589c6.293,0 10.62,3.245 11.208,7.867l10.425,0c-0.688,-10.325 -9.44,-16.029 -21.831,-16.029c-12.097,-0.098 -20.652,6.097 -20.652,15.636c0,10.424 9.047,12.883 20.553,14.259l0.772,0.098c7.303,0.918 11.619,1.461 11.619,6.688c-0,4.032 -4.327,6.589 -10.914,6.589c-7.672,-0 -12.196,-3.737 -12.59,-8.949Zm-170.042,-52.169l-10.086,0l0,36.322c0,4.158 1.869,8.072 5.043,10.567c-3.174,2.494 -5.043,6.409 -5.043,10.566l0,11.888l10.086,-0l0,-11.888c0,-4.157 -1.868,-8.072 -5.043,-10.566c3.175,-2.495 5.043,-6.409 5.043,-10.567l0,-36.322Zm296.758,19.263l10.086,-0l0,17.173c0,4.157 -1.87,8.072 -5.044,10.566c-3.175,-2.494 -5.042,-6.409 -5.042,-10.566l-0,-17.173Zm5.042,27.739c3.174,2.494 5.044,6.409 5.044,10.567l0,11.887l-10.086,-0l-0,-11.887c-0,-4.158 1.867,-8.073 5.042,-10.567Zm-173.819,-47.002l-10.087,0l-0.079,27.563c-0,4.157 1.867,8.309 5.041,10.804c-3.174,2.494 -5.041,6.171 -5.041,10.329l0.079,20.647l10.087,-0l-0.08,-20.647c0,-4.158 -1.868,-7.835 -5.045,-10.329c3.177,-2.495 5.045,-6.647 5.045,-10.804l0.08,-27.563Zm16.335,18.564c4.214,-0.04 8.428,0 12.642,0.12c-6.255,6.852 -12.576,13.65 -18.962,20.395c6.21,9.221 12.399,18.507 18.569,27.765l0.013,0.019l0.011,0.017l1.563,2.342l-12.642,0c-2.5,-3.678 -4.987,-7.366 -7.457,-11.065c-3.988,-6.628 -8.023,-13.227 -12.105,-19.796c6.192,-6.547 12.314,-13.146 18.368,-19.797Zm157.484,-5.48c3.482,-0 6.304,-2.823 6.304,-6.304c-0,-3.482 -2.822,-6.304 -6.304,-6.304c-3.483,-0 -6.305,2.822 -6.305,6.304c0,3.481 2.822,6.304 6.305,6.304Zm-67.983,5.515c4.068,-0.271 7.891,0.571 11.467,2.524c2.343,1.568 4.194,3.584 5.556,6.047c3.127,-4.732 7.514,-7.491 13.164,-8.278c4.924,-0.775 9.605,-0.032 14.039,2.231c3.865,2.47 6.379,5.934 7.547,10.392c0.647,2.542 0.996,5.126 1.051,7.749c0.061,10.059 0.08,20.118 0.061,30.177l-11.115,-0c0.044,-10.569 -0.017,-21.136 -0.176,-31.703c-0.306,-2.804 -1.378,-5.25 -3.218,-7.339c-1.758,-1.632 -3.846,-2.435 -6.258,-2.407c-5.738,0.156 -9.443,2.974 -11.115,8.454c-0.564,2.194 -0.798,4.425 -0.704,6.693c-0.058,8.767 -0.077,17.534 -0.058,26.302l-11.115,-0c0.019,-9.668 0,-19.335 -0.058,-29.002c0.031,-3.004 -0.671,-5.822 -2.107,-8.455c-2.629,-3.463 -6.081,-4.696 -10.353,-3.698c-3.072,0.688 -5.391,2.391 -6.961,5.107c-1.095,1.969 -1.681,4.082 -1.755,6.341c-0.748,2.895 -2.25,5.302 -4.506,7.221c2.93,2.454 4.547,5.605 4.855,9.452c0.061,4.344 0.08,8.689 0.061,13.034l-10.062,-0c-0.022,-4.423 0,-8.846 0.058,-13.269c0.377,-3.749 1.994,-6.822 4.855,-9.217c-2.558,-2.181 -4.14,-4.94 -4.74,-8.278c-0.17,-6.455 -0.228,-12.913 -0.173,-19.374l10.062,0c-0.02,1.566 -0,3.132 0.057,4.697c3.199,-3.278 7.08,-5.079 11.641,-5.401Zm-405.499,-4.531c-1.813,-3.623 0.825,-7.885 4.881,-7.885l73.733,0c4.056,0 6.695,4.262 4.881,7.885l-8.184,16.343c-0.925,1.846 -2.814,3.012 -4.881,3.012l-57.365,0c-2.067,0 -3.956,-1.166 -4.88,-3.011l-8.185,-16.344Zm63.034,44.159c1.814,3.622 -0.824,7.884 -4.88,7.884l-32.813,0c-4.056,0 -6.694,-4.262 -4.88,-7.884l8.184,-16.344c0.924,-1.846 2.814,-3.012 4.88,-3.012l16.445,0c2.066,0 3.955,1.166 4.88,3.012l8.184,16.344Z"/></svg>