<?xml version="1.0" encoding="UTF-8" standalone="no"?><!DOCTYPE svg PUBLIC "-//W3C//DTD SVG 1.1//EN" "http://www.w3.org/Graphics/SVG/1.1/DTD/svg11.dtd"><svg width="100%" height="100%" viewBox="0 0 118 41" version="1.1" xmlns="http://www.w3.org/2000/svg" xmlns:xlink="http://www.w3.org/1999/xlink" xml:space="preserve" xmlns:serif="http://www.serif.com/" style="fill-rule:evenodd;clip-rule:evenodd;stroke-linejoin:round;stroke-miterlimit:2;"><rect id="github-dark" x="0.159" y="0.188" width="117.071" height="40" style="fill-opacity:0;"/><g><path d="M58.834,19.026l-5.197,-0c-0.134,-0 -0.243,0.108 -0.243,0.243l0,2.54c0,0.134 0.109,0.244 0.243,0.244l2.027,-0l0,3.156c0,0 -0.455,0.156 -1.714,0.156c-1.484,-0 -3.558,-0.543 -3.558,-5.104c-0,-4.562 2.159,-5.162 4.187,-5.162c1.755,0 2.511,0.309 2.992,0.458c0.152,0.046 0.291,-0.104 0.291,-0.239l0.58,-2.454c0,-0.063 -0.021,-0.139 -0.093,-0.19c-0.195,-0.139 -1.387,-0.806 -4.399,-0.806c-3.469,-0 -7.028,1.475 -7.028,8.571c0,7.096 4.075,8.153 7.508,8.153c2.843,-0 4.568,-1.215 4.568,-1.215c0.071,-0.039 0.078,-0.139 0.078,-0.184l0,-7.924c0,-0.135 -0.108,-0.243 -0.242,-0.243Z" style="fill:#fff;fill-rule:nonzero;"/><path d="M85.616,12.718c-0,-0.136 -0.107,-0.245 -0.242,-0.245l-2.926,0c-0.133,0 -0.242,0.109 -0.242,0.245c-0,0 0.001,5.654 0.001,5.654l-4.561,0l-0,-5.654c-0,-0.136 -0.108,-0.245 -0.242,-0.245l-2.926,0c-0.133,0 -0.241,0.109 -0.241,0.245l-0,15.311c-0,0.135 0.108,0.245 0.241,0.245l2.926,0c0.134,0 0.242,-0.11 0.242,-0.245l-0,-6.549l4.561,-0c-0,-0 -0.008,6.549 -0.008,6.549c-0,0.135 0.108,0.245 0.242,0.245l2.933,0c0.134,0 0.241,-0.11 0.242,-0.245l-0,-15.311Z" style="fill:#fff;fill-rule:nonzero;"/><path d="M64.355,14.727c0,-1.054 -0.844,-1.905 -1.887,-1.905c-1.041,-0 -1.886,0.851 -1.886,1.905c-0,1.052 0.845,1.906 1.886,1.906c1.043,0 1.887,-0.854 1.887,-1.906Z" style="fill:#fff;fill-rule:nonzero;"/><path d="M64.146,27.881l0,-10.149c0,-0.135 -0.108,-0.244 -0.242,-0.244l-2.917,-0c-0.134,-0 -0.253,0.138 -0.253,0.272l-0,10.126c-0,0.297 0.185,0.386 0.425,0.386l2.628,0c0.288,0 0.359,-0.142 0.359,-0.391Z" style="fill:#fff;fill-rule:nonzero;"/><path d="M96.736,17.511l-2.903,-0c-0.134,-0 -0.242,0.109 -0.242,0.245l-0,7.507c-0,0 -0.738,0.54 -1.785,0.54c-1.047,-0 -1.325,-0.475 -1.325,-1.5l0,-6.547c0,-0.136 -0.108,-0.245 -0.241,-0.245l-2.947,-0c-0.133,-0 -0.242,0.109 -0.242,0.245l-0,7.042c-0,3.045 1.697,3.79 4.032,3.79c1.915,0 3.459,-1.058 3.459,-1.058c0,0 0.074,0.558 0.107,0.624c0.033,0.066 0.12,0.133 0.214,0.133l1.874,-0.009c0.133,0 0.242,-0.11 0.242,-0.244l-0.001,-10.278c0,-0.136 -0.108,-0.245 -0.242,-0.245Z" style="fill:#fff;fill-rule:nonzero;"/><path d="M103.527,25.794c-1.007,-0.031 -1.69,-0.488 -1.69,-0.488l-0,-4.849c-0,0 0.674,-0.413 1.501,-0.487c1.045,-0.094 2.053,0.222 2.053,2.717c-0,2.63 -0.455,3.149 -1.864,3.107Zm1.145,-8.627c-1.649,-0 -2.771,0.735 -2.771,0.735l0,-5.184c0,-0.136 -0.108,-0.245 -0.241,-0.245l-2.934,0c-0.134,0 -0.242,0.109 -0.242,0.245l-0,15.311c-0,0.135 0.108,0.245 0.242,0.245l2.036,0c0.092,0 0.161,-0.047 0.212,-0.13c0.051,-0.082 0.124,-0.706 0.124,-0.706c-0,0 1.2,1.137 3.471,1.137c2.667,0 4.196,-1.352 4.196,-6.072c0,-4.72 -2.442,-5.336 -4.093,-5.336Z" style="fill:#fff;fill-rule:nonzero;"/><path d="M72.556,17.486l-2.195,0c-0,0 -0.003,-2.899 -0.003,-2.899c-0,-0.11 -0.057,-0.165 -0.184,-0.165l-2.991,-0c-0.116,-0 -0.179,0.051 -0.179,0.163l0,2.996c0,0 -1.499,0.362 -1.6,0.391c-0.101,0.03 -0.175,0.123 -0.175,0.234l-0,1.883c-0,0.135 0.108,0.244 0.242,0.244l1.533,0l0,4.531c0,3.364 2.361,3.695 3.953,3.695c0.728,-0 1.598,-0.234 1.742,-0.287c0.087,-0.032 0.137,-0.122 0.137,-0.22l0.003,-2.071c0,-0.135 -0.114,-0.245 -0.243,-0.245c-0.128,0 -0.455,0.053 -0.792,0.053c-1.078,-0 -1.443,-0.502 -1.443,-1.151c-0,-0.648 -0,-4.305 -0,-4.305l2.195,0c0.133,0 0.242,-0.109 0.242,-0.244l-0,-2.359c-0,-0.135 -0.109,-0.244 -0.242,-0.244Z" style="fill:#fff;fill-rule:nonzero;"/></g><path d="M22.161,5.041c-8.687,-0 -15.709,7.074 -15.709,15.826c-0,6.996 4.499,12.917 10.741,15.013c0.781,0.158 1.067,-0.34 1.067,-0.759c-0,-0.367 -0.026,-1.625 -0.026,-2.935c-4.37,0.943 -5.28,-1.887 -5.28,-1.887c-0.702,-1.834 -1.743,-2.305 -1.743,-2.305c-1.43,-0.97 0.104,-0.97 0.104,-0.97c1.587,0.105 2.419,1.625 2.419,1.625c1.405,2.41 3.667,1.729 4.578,1.31c0.13,-1.022 0.546,-1.73 0.988,-2.122c-3.485,-0.367 -7.152,-1.73 -7.152,-7.809c-0,-1.729 0.624,-3.144 1.612,-4.244c-0.156,-0.393 -0.702,-2.018 0.156,-4.193c0,0 1.327,-0.419 4.318,1.625c1.28,-0.347 2.601,-0.523 3.927,-0.525c1.326,0 2.679,0.184 3.927,0.525c2.991,-2.044 4.318,-1.625 4.318,-1.625c0.858,2.175 0.312,3.8 0.156,4.193c1.014,1.1 1.612,2.515 1.612,4.244c0,6.079 -3.667,7.415 -7.178,7.809c0.572,0.497 1.066,1.44 1.066,2.934c0,2.122 -0.026,3.826 -0.026,4.349c0,0.42 0.287,0.918 1.067,0.761c6.242,-2.097 10.741,-8.018 10.741,-15.014c0.026,-8.752 -7.022,-15.826 -15.683,-15.826Z" style="fill:#fff;"/></svg>