<?xml version="1.0" encoding="UTF-8" standalone="no"?><!DOCTYPE svg PUBLIC "-//W3C//DTD SVG 1.1//EN" "http://www.w3.org/Graphics/SVG/1.1/DTD/svg11.dtd"><svg width="100%" height="100%" viewBox="0 0 118 41" version="1.1" xmlns="http://www.w3.org/2000/svg" xmlns:xlink="http://www.w3.org/1999/xlink" xml:space="preserve" xmlns:serif="http://www.serif.com/" style="fill-rule:evenodd;clip-rule:evenodd;stroke-linejoin:round;stroke-miterlimit:2;"><rect id="github-light" x="0" y="0.188" width="117.03" height="40" style="fill:none;"/><path d="M22.002,5.041c-8.687,-0 -15.709,7.074 -15.709,15.826c-0,6.996 4.499,12.917 10.742,15.013c0.78,0.158 1.066,-0.34 1.066,-0.759c-0,-0.367 -0.026,-1.625 -0.026,-2.935c-4.37,0.943 -5.28,-1.887 -5.28,-1.887c-0.702,-1.834 -1.743,-2.305 -1.743,-2.305c-1.43,-0.97 0.104,-0.97 0.104,-0.97c1.587,0.105 2.42,1.625 2.42,1.625c1.404,2.41 3.667,1.729 4.577,1.31c0.13,-1.022 0.546,-1.73 0.988,-2.122c-3.485,-0.367 -7.152,-1.73 -7.152,-7.809c-0,-1.729 0.624,-3.144 1.612,-4.244c-0.156,-0.393 -0.702,-2.018 0.157,-4.193c-0,0 1.326,-0.419 4.317,1.625c1.28,-0.347 2.601,-0.523 3.927,-0.525c1.327,0 2.679,0.184 3.927,0.525c2.992,-2.044 4.318,-1.625 4.318,-1.625c0.859,2.175 0.312,3.8 0.156,4.193c1.015,1.1 1.613,2.515 1.613,4.244c-0,6.079 -3.667,7.415 -7.179,7.809c0.573,0.497 1.066,1.44 1.066,2.934c0,2.122 -0.025,3.826 -0.025,4.349c-0,0.42 0.286,0.918 1.066,0.761c6.242,-2.097 10.742,-8.018 10.742,-15.014c0.025,-8.752 -7.023,-15.826 -15.684,-15.826Z" style="fill:#24292f;"/><g><path d="M58.801,18.99l-5.171,-0c-0.133,-0 -0.242,0.108 -0.242,0.241l0,2.528c0,0.134 0.109,0.243 0.242,0.243l2.017,-0l-0,3.14c-0,0 -0.453,0.155 -1.705,0.155c-1.477,-0 -3.541,-0.54 -3.541,-5.078c0,-4.539 2.149,-5.136 4.166,-5.136c1.747,-0 2.499,0.307 2.978,0.455c0.15,0.047 0.289,-0.103 0.289,-0.237l0.577,-2.442c0,-0.063 -0.021,-0.138 -0.092,-0.189c-0.195,-0.139 -1.381,-0.802 -4.377,-0.802c-3.452,-0 -6.993,1.468 -6.993,8.528c0,7.06 4.054,8.112 7.47,8.112c2.829,-0 4.545,-1.209 4.545,-1.209c0.07,-0.039 0.078,-0.138 0.078,-0.183l0,-7.885c0,-0.133 -0.108,-0.241 -0.241,-0.241Z" style="fill:#0e0d0d;fill-rule:nonzero;"/><path d="M85.448,12.713c-0,-0.134 -0.107,-0.243 -0.24,-0.243l-2.912,0c-0.133,0 -0.241,0.109 -0.241,0.243c0,0.001 0.001,5.627 0.001,5.627l-4.538,-0l-0,-5.627c-0,-0.134 -0.107,-0.243 -0.24,-0.243l-2.911,0c-0.133,0 -0.241,0.109 -0.241,0.243l0,15.235c0,0.134 0.108,0.244 0.241,0.244l2.911,-0c0.133,-0 0.24,-0.11 0.24,-0.244l-0,-6.516l4.538,-0c0,-0 -0.008,6.516 -0.008,6.516c0,0.134 0.108,0.244 0.241,0.244l2.919,-0c0.133,-0 0.24,-0.11 0.24,-0.244l-0,-15.235Z" style="fill:#0e0d0d;fill-rule:nonzero;"/><path d="M64.086,27.801l0,-10.099c0,-0.133 -0.107,-0.243 -0.241,-0.243l-2.902,0c-0.133,0 -0.252,0.138 -0.252,0.271l0,10.075c0,0.297 0.185,0.384 0.423,0.384l2.615,0c0.287,0 0.357,-0.14 0.357,-0.388Z" style="fill:#0e0d0d;fill-rule:nonzero;"/><path d="M72.454,17.458l-2.184,0c-0,0 -0.003,-2.884 -0.003,-2.885c-0,-0.109 -0.057,-0.164 -0.183,-0.164l-2.976,0c-0.116,0 -0.178,0.051 -0.178,0.162l0,2.982c0,-0 -1.491,0.36 -1.592,0.389c-0.1,0.029 -0.174,0.121 -0.174,0.232l-0,1.874c-0,0.134 0.107,0.243 0.24,0.243l1.526,-0l0,4.507c0,3.348 2.349,3.677 3.933,3.677c0.724,-0 1.59,-0.233 1.733,-0.286c0.087,-0.031 0.137,-0.121 0.137,-0.218l0.002,-2.061c0,-0.134 -0.113,-0.243 -0.241,-0.243c-0.128,-0 -0.453,0.052 -0.788,0.052c-1.073,-0 -1.436,-0.499 -1.436,-1.145c-0,-0.645 -0,-4.283 -0,-4.283l2.184,-0c0.133,-0 0.241,-0.109 0.241,-0.243l-0,-2.347c-0,-0.135 -0.108,-0.243 -0.241,-0.243Z" style="fill:#0e0d0d;fill-rule:nonzero;"/><path d="M64.294,14.713c0,-1.049 -0.84,-1.896 -1.877,-1.896c-1.036,0 -1.877,0.847 -1.877,1.896c0,1.047 0.841,1.896 1.877,1.896c1.037,0 1.877,-0.849 1.877,-1.896Z" style="fill:#0e0d0d;fill-rule:nonzero;"/><path d="M96.512,17.482l-2.889,0c-0.132,0 -0.24,0.109 -0.24,0.244l-0,7.47c-0,-0 -0.734,0.537 -1.776,0.537c-1.041,-0 -1.318,-0.473 -1.318,-1.493l0,-6.514c0,-0.135 -0.107,-0.244 -0.24,-0.244l-2.932,0c-0.133,0 -0.241,0.109 -0.241,0.244l-0,7.007c-0,3.03 1.688,3.771 4.011,3.771c1.906,0 3.443,-1.053 3.443,-1.053c-0,0 0.073,0.555 0.106,0.621c0.033,0.066 0.119,0.132 0.212,0.132l1.866,-0.008c0.132,-0 0.24,-0.11 0.24,-0.243l-0.001,-10.227c0,-0.135 -0.107,-0.244 -0.241,-0.244Z" style="fill:#0e0d0d;fill-rule:nonzero;"/><path d="M103.269,25.724c-1.002,-0.031 -1.682,-0.486 -1.682,-0.486l0,-4.824c0,-0 0.671,-0.411 1.494,-0.484c1.04,-0.094 2.042,0.221 2.042,2.702c0,2.617 -0.452,3.134 -1.854,3.092Zm1.14,-8.584c-1.641,0 -2.757,0.732 -2.757,0.732l-0,-5.159c-0,-0.134 -0.108,-0.243 -0.241,-0.243l-2.919,0c-0.133,0 -0.241,0.109 -0.241,0.243l0,15.235c0,0.134 0.108,0.244 0.241,0.244l2.026,-0c0.091,-0 0.16,-0.047 0.211,-0.13c0.051,-0.081 0.123,-0.702 0.123,-0.702c0,-0 1.194,1.131 3.454,1.131c2.653,0 4.175,-1.345 4.175,-6.041c-0,-4.696 -2.43,-5.31 -4.072,-5.31Z" style="fill:#0e0d0d;fill-rule:nonzero;"/></g></svg>