<?xml version="1.0" encoding="UTF-8" standalone="no"?><!DOCTYPE svg PUBLIC "-//W3C//DTD SVG 1.1//EN" "http://www.w3.org/Graphics/SVG/1.1/DTD/svg11.dtd"><svg width="100%" height="100%" viewBox="0 0 156 41" version="1.1" xmlns="http://www.w3.org/2000/svg" xmlns:xlink="http://www.w3.org/1999/xlink" xml:space="preserve" xmlns:serif="http://www.serif.com/" style="fill-rule:evenodd;clip-rule:evenodd;stroke-linejoin:round;stroke-miterlimit:2;"><rect id="namespace-dark" x="0.159" y="0.094" width="155" height="40" style="fill-opacity:0;"/><g><g><path d="M48.306,14.718l2.157,-0l-0,1.565c0.781,-1.215 1.971,-1.812 3.387,-1.812c2.362,0 3.716,1.545 3.716,4.221l0,6.321l-2.258,-0l-0,-5.931c-0,-1.626 -0.781,-2.51 -2.239,-2.51c-1.663,-0 -2.546,1.235 -2.546,3.582l0,4.859l-2.217,-0l-0,-10.295Z" style="fill:#fff;fill-rule:nonzero;"/></g><g><path d="M63.846,14.47c2.875,0 4.291,1.338 4.291,4.014l0,6.527l-2.218,0l0,-1.422c-0.697,1.051 -1.848,1.668 -3.263,1.668c-2.074,0 -3.471,-1.337 -3.471,-3.233c-0,-1.77 1.253,-3.006 3.285,-3.191l2.854,-0.288c0.431,-0.042 0.595,-0.186 0.595,-0.474l0,-0.227c0,-0.864 -0.739,-1.38 -2.032,-1.38c-1.415,-0 -2.361,0.597 -2.606,1.607l-1.787,-1.132c0.533,-1.607 2.054,-2.471 4.354,-2.471l-0.002,0.002Zm-0.883,6.156c-0.945,0.101 -1.479,0.596 -1.479,1.337c-0,0.823 0.636,1.339 1.683,1.339c1.562,0 2.752,-1.092 2.752,-2.451l0,-0.597l-2.956,0.37l0,0.002Z" style="fill:#fff;fill-rule:nonzero;"/></g><g><path d="M82.322,14.47c2.462,0 3.922,1.524 3.922,4.448l-0,6.093l-2.238,0l-0,-5.93c-0,-1.647 -0.74,-2.512 -2.136,-2.512c-1.786,0 -2.649,1.236 -2.649,3.583l0,4.859l-2.216,0l-0,-5.93c-0,-1.647 -0.76,-2.512 -2.157,-2.512c-1.767,0 -2.63,1.236 -2.63,3.583l0,4.859l-2.216,0l-0,-10.293l2.156,-0l-0,1.606c0.637,-1.195 1.704,-1.854 3.225,-1.854c1.521,0 2.689,0.659 3.285,1.977c0.801,-1.297 1.993,-1.977 3.655,-1.977l-0.001,0Z" style="fill:#fff;fill-rule:nonzero;"/></g><g><path d="M92.808,14.47c3.181,0 4.989,2.265 4.989,5.435l-0,0.639l-7.887,-0l0,0.021c0.206,1.751 1.602,2.615 3.081,2.615c1.356,0 2.361,-0.597 3.079,-1.338l1.047,1.791c-0.84,0.824 -2.177,1.626 -4.106,1.626c-3.286,0 -5.359,-2.181 -5.359,-5.354c-0,-3.172 1.992,-5.435 5.155,-5.435l0.001,0Zm-0.042,1.977c-1.622,-0 -2.566,0.905 -2.833,2.409l5.442,-0c-0.144,-1.422 -1.005,-2.409 -2.609,-2.409Z" style="fill:#fff;fill-rule:nonzero;"/></g><g><path d="M102.988,14.47c1.848,0 3.183,0.659 4.065,1.894l-1.499,1.42c-0.553,-0.843 -1.58,-1.276 -2.731,-1.276c-1.026,0 -1.663,0.372 -1.663,1.03c0,0.699 0.678,0.865 2.423,1.276c2.054,0.495 3.491,1.091 3.491,3.171c0,2.079 -1.52,3.272 -4.168,3.272c-2.094,0 -3.758,-0.762 -4.559,-2.079l1.519,-1.461c0.596,0.927 1.665,1.524 3.203,1.524c1.089,0 1.747,-0.369 1.747,-1.132c-0,-0.762 -0.638,-0.926 -2.28,-1.296c-1.766,-0.391 -3.634,-1.009 -3.634,-3.191c-0,-1.956 1.56,-3.151 4.084,-3.151l0.002,-0.001Z" style="fill:#fff;fill-rule:nonzero;"/></g><g><path d="M108.322,14.718l2.218,-0l0,1.461c0.821,-1.113 2.052,-1.709 3.532,-1.709c2.833,0 4.806,2.202 4.806,5.393c-0,3.192 -1.973,5.394 -4.785,5.394c-1.458,0 -2.669,-0.597 -3.552,-1.728l0,6.48l-2.217,0l0,-15.291l-0.002,-0Zm8.276,5.147c-0,-1.956 -1.232,-3.273 -3.079,-3.273c-1.847,-0 -3.079,1.297 -3.079,3.273c-0,1.977 1.232,3.274 3.079,3.274c1.847,-0 3.079,-1.318 3.079,-3.274Z" style="fill:#fff;fill-rule:nonzero;"/></g><g><path d="M124.398,14.47c2.875,0 4.29,1.338 4.29,4.014l0,6.527l-2.217,0l0,-1.422c-0.697,1.051 -1.849,1.668 -3.265,1.668c-2.073,0 -3.47,-1.337 -3.47,-3.233c0,-1.77 1.254,-3.006 3.286,-3.191l2.853,-0.288c0.432,-0.042 0.596,-0.186 0.596,-0.474l0,-0.227c0,-0.864 -0.739,-1.38 -2.032,-1.38c-1.416,-0 -2.361,0.597 -2.607,1.607l-1.786,-1.132c0.533,-1.607 2.053,-2.471 4.353,-2.471l-0.001,0.002Zm-0.884,6.156c-0.944,0.101 -1.479,0.596 -1.479,1.337c-0,0.823 0.636,1.339 1.684,1.339c1.561,0 2.752,-1.092 2.752,-2.451l0,-0.597l-2.957,0.37l0,0.002Z" style="fill:#fff;fill-rule:nonzero;"/></g><g><path d="M135.277,14.47c1.518,0 2.812,0.515 3.797,1.502l-1.335,1.75c-0.781,-0.72 -1.601,-1.092 -2.525,-1.092c-1.849,0 -3.1,1.318 -3.1,3.233c0,1.917 1.274,3.234 3.079,3.234c0.966,-0 1.869,-0.391 2.65,-1.131l1.273,1.77c-0.986,0.987 -2.362,1.523 -3.922,1.523c-3.181,0 -5.358,-2.181 -5.358,-5.373c-0,-3.192 2.238,-5.415 5.442,-5.415l-0.001,-0.001Z" style="fill:#fff;fill-rule:nonzero;"/></g><g><path d="M144.614,14.47c3.182,0 4.989,2.265 4.989,5.435l0,0.639l-7.885,-0l-0,0.021c0.205,1.751 1.6,2.615 3.08,2.615c1.356,0 2.361,-0.597 3.08,-1.338l1.047,1.791c-0.842,0.824 -2.177,1.626 -4.108,1.626c-3.285,0 -5.359,-2.181 -5.359,-5.354c0,-3.172 1.993,-5.435 5.155,-5.435l0.001,0Zm-0.041,1.977c-1.621,-0 -2.567,0.905 -2.834,2.409l5.442,-0c-0.143,-1.422 -1.005,-2.409 -2.608,-2.409Z" style="fill:#fff;fill-rule:nonzero;"/></g><g><path d="M22.807,37.187c9.441,0 17.094,-7.653 17.094,-17.093c-0,-9.441 -7.653,-17.094 -17.094,-17.094c-9.44,0 -17.093,7.653 -17.093,17.094c-0,9.44 7.653,17.093 17.093,17.093Z" style="fill:#1c32ff;fill-rule:nonzero;"/></g><g><rect x="23.13" y="27.011" width="8.581" height="2.561" style="fill:#fff;"/></g><g><path d="M25.246,25.186l-2.101,-0l-6.035,-8.512l-0,8.512l-2.562,-0l-0,-12.776l2.501,0l5.635,8.075l0,-8.075l2.562,0l0,12.776Z" style="fill:#fff;fill-rule:nonzero;"/></g></g></svg>