<?xml version="1.0" encoding="UTF-8" standalone="no"?><!DOCTYPE svg PUBLIC "-//W3C//DTD SVG 1.1//EN" "http://www.w3.org/Graphics/SVG/1.1/DTD/svg11.dtd"><svg width="100%" height="100%" viewBox="0 0 147 41" version="1.1" xmlns="http://www.w3.org/2000/svg" xmlns:xlink="http://www.w3.org/1999/xlink" xml:space="preserve" xmlns:serif="http://www.serif.com/" style="fill-rule:evenodd;clip-rule:evenodd;stroke-linejoin:round;stroke-miterlimit:2;"><rect id="patreon-light" x="0" y="0.042" width="146.095" height="40" style="fill:none;"/><g><path d="M126.177,27.486c-0,0.883 0.508,1.435 1.281,1.435c0.773,0 1.281,-0.552 1.281,-1.435l0,-6.758c0,-0.817 0.486,-1.215 0.994,-1.215c0.398,-0 0.729,0.221 0.972,0.618l4.241,7.09c0.574,0.971 1.104,1.7 2.187,1.7c1.038,0 1.789,-0.751 1.789,-1.965l-0,-12.721c-0,-0.884 -0.508,-1.436 -1.281,-1.436c-0.773,0 -1.282,0.552 -1.282,1.436l0,6.758c0,0.817 -0.485,1.214 -0.994,1.214c-0.397,0 -0.728,-0.221 -0.971,-0.618l-4.241,-7.089c-0.575,-0.972 -1.105,-1.701 -2.187,-1.701c-1.038,0 -1.789,0.751 -1.789,1.966l-0,12.721Zm-15.705,-6.626c0,3.357 1.988,5.499 4.86,5.499c2.871,0 4.859,-2.142 4.859,-5.499c0,-3.379 -1.988,-5.499 -4.859,-5.499c-2.872,-0 -4.86,2.12 -4.86,5.499m-2.915,0c-0,-4.77 3.578,-8.061 7.775,-8.061c4.196,0 7.775,3.291 7.775,8.061c-0,4.771 -3.579,8.061 -7.775,8.061c-4.197,0 -7.775,-3.29 -7.775,-8.061m-12.436,6.582l0,-13.163c0,-0.685 0.486,-1.149 1.281,-1.149l8.349,0c0.796,0 1.282,0.464 1.282,1.149c-0,0.684 -0.486,1.148 -1.282,1.148l-5.279,0c-1.038,0 -1.789,0.619 -1.789,1.789l0,0.486c0,1.17 0.751,1.789 1.789,1.789l4.087,-0c0.795,-0 1.281,0.464 1.281,1.148c-0,0.685 -0.486,1.149 -1.281,1.149l-3.932,-0c-1.038,-0 -1.944,0.64 -1.944,1.943l0,0.619c0,1.303 0.906,1.943 1.944,1.943l5.124,0c0.796,0 1.282,0.464 1.282,1.149c-0,0.684 -0.486,1.148 -1.282,1.148l-8.349,0c-0.795,0 -1.281,-0.464 -1.281,-1.148m-12.038,-9.409l-0,-0.662c-0,-1.436 0.751,-2.032 1.9,-2.032l1.104,-0c1.9,-0 3.114,0.707 3.114,2.341c0,1.634 -1.281,2.385 -3.18,2.385l-1.038,0c-1.149,0 -1.9,-0.596 -1.9,-2.032m-2.562,9.453c-0,0.883 0.508,1.435 1.281,1.435c0.773,0 1.281,-0.552 1.281,-1.435l-0,-3.512c-0,-0.994 0.574,-1.413 1.281,-1.413l0.177,-0c0.464,-0 0.927,0.287 1.215,0.706l3.357,4.925c0.309,0.464 0.707,0.729 1.215,0.729c0.663,0 1.193,-0.552 1.193,-1.214c-0,-0.265 -0.089,-0.553 -0.287,-0.84l-2.231,-3.136c-0.265,-0.375 -0.376,-0.684 -0.376,-0.949c0,-0.553 0.486,-0.95 1.06,-1.37c1.039,-0.773 2.165,-1.789 2.165,-3.732c-0,-2.717 -2.12,-4.55 -5.611,-4.55l-4.439,0c-0.795,0 -1.281,0.464 -1.281,1.149l-0,13.207Zm-15.197,-13.163c0,-0.707 0.508,-1.193 1.325,-1.193l10.161,0c0.817,0 1.325,0.486 1.325,1.193c0,0.707 -0.508,1.192 -1.325,1.192l-1.701,0c-1.347,0 -2.076,0.685 -2.076,2.253l-0,9.696c-0,0.905 -0.508,1.457 -1.303,1.457c-0.795,0 -1.303,-0.552 -1.303,-1.457l-0,-9.696c-0,-1.568 -0.729,-2.253 -2.077,-2.253l-1.701,0c-0.817,0 -1.325,-0.485 -1.325,-1.192m-7.974,7.465c0,-0.243 0.067,-0.464 0.177,-0.795l0.95,-2.628c0.176,-0.508 0.486,-0.751 0.839,-0.751c0.354,-0 0.663,0.243 0.839,0.751l0.95,2.628c0.111,0.331 0.177,0.552 0.177,0.795c0,0.662 -0.375,1.126 -1.369,1.126l-1.193,0c-0.994,0 -1.37,-0.464 -1.37,-1.126m-4.881,5.919c-0,0.728 0.508,1.214 1.281,1.214c0.508,0 0.972,-0.331 1.237,-1.016l0.464,-1.236c0.375,-0.994 1.038,-1.458 1.767,-1.458l4.197,0c0.728,0 1.391,0.464 1.767,1.458l0.464,1.236c0.265,0.685 0.728,1.016 1.236,1.016c0.773,0 1.281,-0.486 1.281,-1.214c0,-0.199 -0.044,-0.442 -0.132,-0.685l-5.014,-13.03c-0.309,-0.795 -1.016,-1.193 -1.701,-1.193c-0.685,0 -1.391,0.398 -1.7,1.193l-5.015,13.03c-0.088,0.243 -0.132,0.486 -0.132,0.685m-8.327,-9.475c-0,1.391 0.706,2.054 2.054,2.054l0.331,-0c1.9,-0 3.291,-0.773 3.291,-2.474c0,-1.7 -1.391,-2.473 -3.291,-2.473l-0.331,-0c-1.348,-0 -2.054,0.662 -2.054,2.054l-0,0.839Zm-2.563,-3.953c0,-0.685 0.509,-1.149 1.304,-1.149l3.799,0c3.446,0 5.787,1.9 5.787,4.682c-0,2.739 -2.319,4.771 -5.787,4.771l-0.53,-0c-1.326,-0 -2.01,0.684 -2.01,1.789l-0,3.114c-0,0.883 -0.508,1.435 -1.281,1.435c-0.773,0 -1.282,-0.552 -1.282,-1.435l0,-13.207Z" style="fill:#030404;fill-rule:nonzero;"/><path d="M30.628,14.722c-0.004,-3.403 -2.655,-6.192 -5.764,-7.199c-3.862,-1.249 -8.955,-1.068 -12.643,0.672c-4.469,2.109 -5.873,6.728 -5.925,11.336c-0.043,3.788 0.335,13.766 5.962,13.837c4.182,0.053 4.805,-5.335 6.739,-7.931c1.377,-1.846 3.149,-2.367 5.331,-2.907c3.75,-0.928 6.306,-3.888 6.3,-7.808" style="fill:#030404;fill-rule:nonzero;"/></g></svg>