<?xml version="1.0" encoding="UTF-8" standalone="no"?><!DOCTYPE svg PUBLIC "-//W3C//DTD SVG 1.1//EN" "http://www.w3.org/Graphics/SVG/1.1/DTD/svg11.dtd"><svg width="100%" height="100%" viewBox="0 0 152 41" version="1.1" xmlns="http://www.w3.org/2000/svg" xmlns:xlink="http://www.w3.org/1999/xlink" xml:space="preserve" xmlns:serif="http://www.serif.com/" style="fill-rule:evenodd;clip-rule:evenodd;stroke-linejoin:round;stroke-miterlimit:2;"><rect id="zed-dark" x="0.159" y="0" width="150.803" height="40" style="fill-opacity:0;"/><g><path d="M8.493,6.988c-0,-0.541 0.438,-0.979 0.978,-0.979l25.043,0l-3.426,3.426l-17.212,-0c-1.081,-0 -1.958,0.876 -1.958,1.957l0,12.235l1.958,0l-0,-12.235l15.255,0l-3.426,3.426l-6.935,0c-0.811,0 -1.468,0.658 -1.468,1.468l-0,2.447l1.957,0l0,-1.957l4.489,-0l-16.091,16.09c-0.925,0.925 -0.27,2.506 1.038,2.506l26.224,0c1.622,0 2.937,-1.314 2.937,-2.936l-0,-21.533l-1.958,0l0,21.533c0,0.541 -0.438,0.979 -0.979,0.979l-25.042,-0l3.426,-3.426l17.212,0c1.081,0 1.958,-0.876 1.958,-1.957l-0,-12.235l-1.958,-0l0,12.235l-15.255,-0l3.365,-3.365l6.996,0c0.811,0 1.468,-0.657 1.468,-1.468l0,-2.508l-1.957,-0l-0,2.019l-4.55,-0l16.152,-16.152c0.925,-0.925 0.27,-2.506 -1.038,-2.506l-26.225,-0c-1.621,-0 -2.936,1.314 -2.936,2.936l0,21.533l1.958,-0l-0,-21.533Zm47.729,11.172l-7.926,0l0,-1.604l5.72,-9.038l-5.72,0l0,-1.672l7.926,0l-0,1.52l-5.754,9.114l5.754,-0l-0,1.68Zm10.353,0l-7.909,0l-0,-12.314l7.909,0l-0,1.672l-6.025,0l-0,3.598l5.142,0l0,1.664l-5.142,0l-0,3.7l6.025,-0l-0,1.68Zm11.159,-5.625l-0,-1.241c-0,-0.636 -0.026,-1.191 -0.077,-1.664c-0.051,-0.473 -0.169,-0.938 -0.356,-1.394c-0.181,-0.456 -0.456,-0.867 -0.823,-1.233c-0.776,-0.771 -1.842,-1.157 -3.2,-1.157l-4.344,0l-0,12.314l4.344,0c1.358,0 2.424,-0.385 3.2,-1.157c0.367,-0.366 0.642,-0.788 0.823,-1.267c0.187,-0.478 0.305,-0.965 0.356,-1.461c0.051,-0.495 0.077,-1.075 0.077,-1.74Zm-1.91,-2.255c0.023,0.383 0.034,0.929 0.034,1.639c0,1.064 -0.037,1.872 -0.11,2.424c-0.074,0.552 -0.258,0.988 -0.552,1.309c-0.503,0.552 -1.205,0.828 -2.104,0.828l-2.274,-0l-0,-8.962l2.274,0c0.894,0 1.595,0.279 2.104,0.837c0.198,0.219 0.345,0.498 0.441,0.836c0.102,0.338 0.165,0.701 0.187,1.089Zm-25.644,23.197l-1.884,-0l0,-12.315l1.884,0l-0,12.315Zm10.819,-0l1.723,-0l0,-12.315l-1.875,0l-0,8.649l-5.72,-8.649l-1.722,0l-0,12.315l1.883,-0l0,-8.666l5.711,8.666Zm13.402,-6.867l0,1.242c0,0.664 -0.025,1.244 -0.076,1.74c-0.051,0.495 -0.17,0.982 -0.356,1.461c-0.181,0.478 -0.456,0.9 -0.823,1.266c-0.775,0.772 -1.842,1.158 -3.2,1.158l-4.344,-0l-0,-12.315l4.344,0c1.358,0 2.425,0.386 3.2,1.157c0.367,0.366 0.642,0.777 0.823,1.234c0.186,0.456 0.305,0.92 0.356,1.393c0.051,0.473 0.076,1.028 0.076,1.664Zm-1.875,0.625c0,-0.709 -0.011,-1.256 -0.034,-1.639c-0.023,-0.388 -0.085,-0.751 -0.186,-1.089c-0.097,-0.338 -0.244,-0.617 -0.442,-0.836c-0.509,-0.558 -1.21,-0.836 -2.104,-0.836l-2.275,-0l0,8.961l2.275,-0c0.899,-0 1.601,-0.276 2.104,-0.828c0.294,-0.321 0.478,-0.757 0.552,-1.309c0.073,-0.552 0.11,-1.36 0.11,-2.424Zm12.401,4.308c0.384,-0.648 0.577,-1.389 0.577,-2.222l-0,-8.159l-1.876,0l0,8.075c0,0.546 -0.107,1.019 -0.322,1.419c-0.209,0.399 -0.509,0.709 -0.9,0.929c-0.384,0.214 -0.834,0.321 -1.349,0.321c-0.515,-0 -0.964,-0.107 -1.349,-0.321c-0.385,-0.22 -0.682,-0.53 -0.891,-0.929c-0.21,-0.406 -0.314,-0.879 -0.314,-1.419l-0,-8.075l-1.875,0l-0,8.159c-0,0.833 0.192,1.574 0.577,2.222c0.384,0.647 0.913,1.148 1.586,1.503c0.674,0.355 1.429,0.532 2.266,0.532c0.843,-0 1.601,-0.177 2.274,-0.532c0.679,-0.355 1.211,-0.856 1.596,-1.503Zm10.992,-1.58c-0,0.546 -0.108,1.047 -0.323,1.503c-0.215,0.451 -0.526,0.837 -0.933,1.158c-0.402,0.315 -0.871,0.554 -1.409,0.718c-0.537,0.157 -1.131,0.236 -1.782,0.236c-0.945,-0 -1.768,-0.124 -2.469,-0.372c-0.696,-0.253 -1.335,-0.67 -1.918,-1.25l1.256,-1.233c0.277,0.282 0.58,0.513 0.908,0.693c0.334,0.18 0.687,0.307 1.061,0.38c0.373,0.073 0.772,0.11 1.196,0.11c0.798,-0 1.423,-0.166 1.875,-0.499c0.453,-0.332 0.679,-0.796 0.679,-1.393c0,-0.558 -0.164,-0.983 -0.492,-1.276c-0.147,-0.146 -0.319,-0.256 -0.518,-0.329c-0.192,-0.079 -0.469,-0.144 -0.831,-0.194l-1.46,-0.203c-1.007,-0.141 -1.79,-0.47 -2.35,-0.988c-0.6,-0.558 -0.9,-1.34 -0.9,-2.348c0,-0.715 0.167,-1.346 0.501,-1.892c0.334,-0.546 0.812,-0.969 1.434,-1.267c0.622,-0.304 1.355,-0.456 2.198,-0.456c0.831,-0 1.55,0.113 2.155,0.338c0.606,0.219 1.169,0.571 1.689,1.056l-1.205,1.182c-0.249,-0.242 -0.515,-0.431 -0.798,-0.566c-0.282,-0.141 -0.577,-0.239 -0.882,-0.295c-0.306,-0.062 -0.642,-0.093 -1.01,-0.093c-0.47,-0 -0.874,0.081 -1.213,0.245c-0.34,0.163 -0.6,0.391 -0.781,0.684c-0.176,0.287 -0.263,0.616 -0.263,0.988c-0,0.49 0.155,0.873 0.466,1.149c0.153,0.129 0.354,0.247 0.603,0.354c0.249,0.102 0.512,0.172 0.789,0.211l1.409,0.212c0.566,0.084 1.026,0.199 1.383,0.346c0.362,0.141 0.67,0.329 0.925,0.566c0.673,0.585 1.01,1.427 1.01,2.525Zm6.704,-7.128l3.402,-0l0,-1.673l-8.689,0l-0,1.673l3.411,-0l0,10.642l1.876,-0l-0,-10.642Zm14.208,10.642l-2.19,-0l-2.605,-5.186l-2.342,-0l0,5.186l-1.884,-0l0,-12.315l4.803,0c0.758,0 1.429,0.155 2.012,0.465c0.588,0.304 1.038,0.729 1.349,1.275c0.317,0.541 0.475,1.16 0.475,1.858c-0,0.845 -0.229,1.552 -0.687,2.12c-0.453,0.563 -1.044,0.946 -1.774,1.149l2.843,5.448Zm-2.257,-8.7c-0,-0.602 -0.193,-1.075 -0.577,-1.419c-0.38,-0.349 -0.889,-0.523 -1.528,-0.523l-2.775,-0l0,3.859l2.775,0c0.634,0 1.143,-0.171 1.528,-0.515c0.384,-0.343 0.577,-0.811 0.577,-1.402Zm4.624,8.7l1.884,-0l0,-12.315l-1.884,0l0,12.315Zm12.294,-0l-7.909,-0l-0,-12.315l7.909,0l-0,1.673l-6.025,-0l-0,3.598l5.142,-0l-0,1.663l-5.142,0l-0,3.7l6.025,-0l-0,1.681Zm9.996,-2.011c0.215,-0.456 0.322,-0.957 0.322,-1.503c0,-1.098 -0.336,-1.94 -1.009,-2.525c-0.255,-0.237 -0.563,-0.425 -0.925,-0.566c-0.357,-0.147 -0.818,-0.262 -1.384,-0.346l-1.408,-0.212c-0.277,-0.039 -0.54,-0.109 -0.789,-0.211c-0.249,-0.107 -0.45,-0.225 -0.603,-0.354c-0.311,-0.276 -0.467,-0.659 -0.467,-1.149c0,-0.372 0.088,-0.701 0.263,-0.988c0.181,-0.293 0.442,-0.521 0.781,-0.684c0.34,-0.164 0.744,-0.245 1.214,-0.245c0.367,-0 0.704,0.031 1.009,0.093c0.306,0.056 0.6,0.154 0.883,0.295c0.283,0.135 0.549,0.324 0.798,0.566l1.205,-1.182c-0.521,-0.485 -1.084,-0.837 -1.689,-1.056c-0.605,-0.225 -1.324,-0.338 -2.156,-0.338c-0.842,-0 -1.575,0.152 -2.197,0.456c-0.623,0.298 -1.101,0.721 -1.434,1.267c-0.334,0.546 -0.501,1.177 -0.501,1.892c-0,1.008 0.3,1.79 0.899,2.348c0.561,0.518 1.344,0.847 2.351,0.988l1.459,0.203c0.363,0.05 0.64,0.115 0.832,0.194c0.198,0.073 0.371,0.183 0.518,0.329c0.328,0.293 0.492,0.718 0.492,1.276c0,0.597 -0.226,1.061 -0.679,1.393c-0.452,0.333 -1.077,0.499 -1.875,0.499c-0.425,-0 -0.823,-0.037 -1.197,-0.11c-0.373,-0.073 -0.727,-0.2 -1.061,-0.38c-0.328,-0.18 -0.63,-0.411 -0.907,-0.693l-1.256,1.233c0.582,0.58 1.222,0.997 1.917,1.25c0.702,0.248 1.525,0.372 2.47,0.372c0.65,-0 1.244,-0.079 1.782,-0.236c0.537,-0.164 1.007,-0.403 1.409,-0.718c0.407,-0.321 0.718,-0.707 0.933,-1.158Z" style="fill:#fff;"/></g></svg>