<?xml version="1.0" encoding="UTF-8" standalone="no"?><!DOCTYPE svg PUBLIC "-//W3C//DTD SVG 1.1//EN" "http://www.w3.org/Graphics/SVG/1.1/DTD/svg11.dtd"><svg width="100%" height="100%" viewBox="0 0 151 41" version="1.1" xmlns="http://www.w3.org/2000/svg" xmlns:xlink="http://www.w3.org/1999/xlink" xml:space="preserve" xmlns:serif="http://www.serif.com/" style="fill-rule:evenodd;clip-rule:evenodd;stroke-linejoin:round;stroke-miterlimit:2;"><rect id="zed-light" x="0" y="0" width="150.727" height="40" style="fill:none;"/><path d="M7.747,7.089c0,-0.559 0.454,-1.012 1.013,-1.012l25.906,-0l-3.544,3.544l-17.806,-0c-1.118,-0 -2.025,0.906 -2.025,2.025l0,12.656l2.025,-0l0,-12.656l15.781,-0l-3.544,3.543l-7.174,0c-0.839,0 -1.519,0.68 -1.519,1.519l0,2.531l2.025,0l0,-2.025l4.643,0l-16.645,16.645c-0.957,0.957 -0.279,2.593 1.074,2.593l27.128,0c1.678,0 3.038,-1.36 3.038,-3.037l-0,-22.276l-2.025,0l-0,22.276c-0,0.559 -0.454,1.012 -1.013,1.012l-25.906,0l3.544,-3.544l17.806,0c1.119,0 2.025,-0.906 2.025,-2.025l0,-12.656l-2.025,-0l0,12.656l-15.781,0l3.481,-3.48l7.237,-0c0.839,-0 1.519,-0.68 1.519,-1.519l0,-2.595l-2.025,0l0,2.089l-4.706,-0l16.708,-16.709c0.957,-0.956 0.279,-2.592 -1.074,-2.592l-27.128,-0c-1.678,-0 -3.038,1.36 -3.038,3.037l0,22.276l2.025,-0l0,-22.276Zm49.375,11.558l-8.199,-0l0,-1.66l5.917,-9.349l-5.917,-0l0,-1.73l8.199,-0l0,1.573l-5.952,9.427l5.952,0l0,1.739Zm10.71,-0l-8.182,-0l0,-12.739l8.182,-0l-0,1.73l-6.233,-0l0,3.722l5.32,-0l-0,1.721l-5.32,0l0,3.827l6.233,0l-0,1.739Zm11.543,-5.819l0,-1.285c0,-0.658 -0.026,-1.231 -0.079,-1.721c-0.052,-0.489 -0.175,-0.97 -0.368,-1.441c-0.188,-0.472 -0.472,-0.897 -0.852,-1.276c-0.802,-0.798 -1.905,-1.197 -3.309,-1.197l-4.495,-0l0,12.739l4.495,-0c1.404,-0 2.507,-0.399 3.309,-1.197c0.38,-0.379 0.664,-0.816 0.852,-1.311c0.193,-0.495 0.316,-0.999 0.368,-1.511c0.053,-0.513 0.079,-1.113 0.079,-1.8Zm-1.975,-2.333c0.024,0.396 0.035,0.961 0.035,1.695c0,1.101 -0.038,1.937 -0.114,2.508c-0.076,0.57 -0.266,1.022 -0.57,1.354c-0.521,0.571 -1.247,0.856 -2.177,0.856l-2.353,0l-0,-9.27l2.353,-0c0.924,-0 1.65,0.288 2.177,0.865c0.205,0.227 0.357,0.515 0.456,0.865c0.105,0.349 0.17,0.725 0.193,1.127Zm-26.528,23.996l-1.949,0l0,-12.739l1.949,0l-0,12.739Zm11.192,0l1.782,0l0,-12.739l-1.94,0l0,8.947l-5.916,-8.947l-1.782,0l-0,12.739l1.948,0l0,-8.964l5.908,8.964Zm13.864,-7.103l0,1.284c0,0.687 -0.026,1.287 -0.079,1.8c-0.052,0.513 -0.175,1.016 -0.368,1.511c-0.188,0.496 -0.471,0.932 -0.852,1.311c-0.801,0.798 -1.905,1.197 -3.309,1.197l-4.495,0l0,-12.739l4.495,0c1.404,0 2.508,0.399 3.309,1.197c0.381,0.379 0.664,0.804 0.852,1.276c0.193,0.472 0.316,0.952 0.368,1.441c0.053,0.49 0.079,1.064 0.079,1.722Zm-1.94,0.646c0,-0.734 -0.011,-1.299 -0.035,-1.695c-0.023,-0.402 -0.087,-0.777 -0.193,-1.127c-0.099,-0.349 -0.252,-0.638 -0.456,-0.865c-0.527,-0.577 -1.253,-0.865 -2.177,-0.865l-2.353,0l-0,9.27l2.353,0c0.93,0 1.656,-0.285 2.177,-0.856c0.304,-0.332 0.494,-0.783 0.57,-1.354c0.076,-0.571 0.114,-1.407 0.114,-2.508Zm12.828,4.456c0.399,-0.67 0.597,-1.436 0.597,-2.298l0,-8.44l-1.94,0l0,8.353c0,0.565 -0.111,1.054 -0.333,1.468c-0.217,0.413 -0.527,0.734 -0.931,0.961c-0.398,0.221 -0.863,0.332 -1.395,0.332c-0.533,-0 -0.998,-0.111 -1.396,-0.332c-0.398,-0.227 -0.705,-0.548 -0.922,-0.961c-0.217,-0.42 -0.325,-0.909 -0.325,-1.468l0,-8.353l-1.94,0l0,8.44c0,0.862 0.199,1.628 0.597,2.298c0.398,0.67 0.945,1.189 1.642,1.556c0.696,0.367 1.477,0.55 2.344,0.55c0.872,-0 1.656,-0.183 2.352,-0.55c0.703,-0.367 1.253,-0.886 1.65,-1.556Zm11.371,-1.634c0,0.565 -0.111,1.084 -0.333,1.556c-0.223,0.466 -0.544,0.864 -0.966,1.197c-0.415,0.326 -0.901,0.573 -1.457,0.742c-0.556,0.163 -1.17,0.245 -1.843,0.245c-0.978,-0 -1.829,-0.128 -2.555,-0.385c-0.72,-0.262 -1.381,-0.693 -1.984,-1.293l1.299,-1.275c0.287,0.291 0.6,0.53 0.94,0.716c0.345,0.187 0.711,0.318 1.097,0.393c0.386,0.076 0.799,0.114 1.238,0.114c0.825,-0 1.472,-0.172 1.94,-0.516c0.468,-0.343 0.702,-0.824 0.702,-1.441c0,-0.577 -0.17,-1.017 -0.509,-1.319c-0.152,-0.152 -0.331,-0.265 -0.536,-0.341c-0.199,-0.082 -0.485,-0.149 -0.86,-0.201l-1.51,-0.21c-1.041,-0.146 -1.852,-0.486 -2.431,-1.022c-0.621,-0.577 -0.931,-1.386 -0.931,-2.429c0,-0.74 0.173,-1.392 0.518,-1.957c0.345,-0.565 0.84,-1.002 1.484,-1.311c0.643,-0.314 1.401,-0.472 2.273,-0.472c0.86,0 1.604,0.117 2.23,0.35c0.626,0.227 1.209,0.591 1.747,1.092l-1.247,1.223c-0.257,-0.25 -0.532,-0.445 -0.825,-0.585c-0.292,-0.146 -0.597,-0.248 -0.913,-0.306c-0.316,-0.064 -0.664,-0.096 -1.044,-0.096c-0.486,-0 -0.905,0.084 -1.256,0.253c-0.351,0.169 -0.62,0.405 -0.807,0.708c-0.182,0.297 -0.272,0.638 -0.272,1.022c-0,0.507 0.16,0.903 0.482,1.188c0.158,0.135 0.366,0.257 0.624,0.367c0.257,0.105 0.529,0.178 0.816,0.219l1.457,0.218c0.586,0.088 1.062,0.207 1.431,0.359c0.375,0.145 0.694,0.34 0.957,0.585c0.696,0.606 1.044,1.477 1.044,2.612Zm6.936,-7.374l3.52,0l-0,-1.73l-8.989,0l-0,1.73l3.529,0l-0,11.009l1.94,0l-0,-11.009Zm14.698,11.009l-2.265,0l-2.695,-5.364l-2.423,-0l-0,5.364l-1.949,0l0,-12.739l4.969,0c0.784,0 1.477,0.16 2.08,0.481c0.609,0.314 1.074,0.754 1.396,1.319c0.328,0.559 0.492,1.2 0.492,1.922c-0,0.874 -0.237,1.605 -0.711,2.193c-0.469,0.583 -1.08,0.979 -1.835,1.189l2.941,5.635Zm-2.335,-8.999c-0,-0.624 -0.2,-1.113 -0.597,-1.468c-0.393,-0.361 -0.919,-0.542 -1.581,-0.542l-2.87,0l-0,3.993l2.87,-0c0.656,-0 1.183,-0.178 1.581,-0.533c0.397,-0.355 0.597,-0.839 0.597,-1.45Zm4.784,8.999l1.949,0l-0,-12.739l-1.949,0l-0,12.739Zm12.717,0l-8.182,0l0,-12.739l8.182,0l-0,1.73l-6.233,0l0,3.722l5.32,0l-0,1.721l-5.32,0l0,3.827l6.233,0l-0,1.739Zm10.341,-2.079c0.222,-0.472 0.333,-0.991 0.333,-1.556c0,-1.135 -0.348,-2.006 -1.044,-2.612c-0.264,-0.245 -0.583,-0.44 -0.957,-0.585c-0.369,-0.152 -0.846,-0.271 -1.431,-0.359l-1.457,-0.218c-0.287,-0.041 -0.559,-0.114 -0.817,-0.219c-0.257,-0.11 -0.465,-0.232 -0.623,-0.367c-0.322,-0.285 -0.483,-0.681 -0.483,-1.188c0,-0.384 0.091,-0.725 0.272,-1.022c0.188,-0.303 0.457,-0.539 0.808,-0.708c0.351,-0.169 0.77,-0.253 1.255,-0.253c0.381,-0 0.729,0.032 1.045,0.096c0.316,0.058 0.62,0.16 0.913,0.306c0.292,0.14 0.568,0.335 0.825,0.585l1.247,-1.223c-0.539,-0.501 -1.121,-0.865 -1.747,-1.092c-0.627,-0.233 -1.37,-0.35 -2.23,-0.35c-0.872,0 -1.63,0.158 -2.274,0.472c-0.643,0.309 -1.138,0.746 -1.483,1.311c-0.345,0.565 -0.518,1.217 -0.518,1.957c-0,1.043 0.31,1.852 0.93,2.429c0.58,0.536 1.39,0.876 2.432,1.022l1.51,0.21c0.374,0.052 0.661,0.119 0.86,0.201c0.205,0.076 0.383,0.189 0.536,0.341c0.339,0.302 0.509,0.742 0.509,1.319c-0,0.617 -0.234,1.098 -0.703,1.441c-0.468,0.344 -1.114,0.516 -1.94,0.516c-0.439,-0 -0.851,-0.038 -1.237,-0.114c-0.387,-0.075 -0.752,-0.206 -1.098,-0.393c-0.339,-0.186 -0.652,-0.425 -0.939,-0.716l-1.299,1.275c0.603,0.6 1.264,1.031 1.984,1.293c0.726,0.257 1.577,0.385 2.554,0.385c0.673,-0 1.288,-0.082 1.844,-0.245c0.556,-0.169 1.042,-0.416 1.457,-0.742c0.421,-0.333 0.743,-0.731 0.966,-1.197Z" style="fill:#084ccf;"/></svg>